<?xml version="1.0" encoding="utf-8"?>
<!-- Generator: Adobe Illustrator 25.3.1, SVG Export Plug-In . SVG Version: 6.00 Build 0)  -->
<svg version="1.1" id="Layer_1" xmlns="http://www.w3.org/2000/svg" xmlns:xlink="http://www.w3.org/1999/xlink" x="0px" y="0px"
	 viewBox="0 0 200 45" style="enable-background:new 0 0 200 45;" xml:space="preserve">
<style type="text/css">
	.st0{fill:none;stroke:#000000;stroke-miterlimit:10;}
	.st1{fill:#95CA57;}
	.st2{fill:#B6D433;}
	.st3{fill:#F7941D;}
	.st4{fill:#1C75BC;}
	.st5{fill:#5685C5;}
</style>
<g>
	<path d="M47.51,15.85c-0.95-0.62-2.2-1.96-2.6-3.19c-0.37,1.3-1.43,2.65-2.64,3.46l-0.67-0.81c1.61-1.01,2.75-2.87,2.75-4.84V8.68
		h1.11v1.74c0,2.01,1.2,3.69,2.7,4.62L47.51,15.85z M50.11,12.91v5.54h-1.08V7.76h1.08v4.26h1.66v0.89H50.11z"/>
	<path class="st0" d="M47.51,15.85c-0.95-0.62-2.2-1.96-2.6-3.19c-0.37,1.3-1.43,2.65-2.64,3.46l-0.67-0.81
		c1.61-1.01,2.75-2.87,2.75-4.84V8.68h1.11v1.74c0,2.01,1.2,3.69,2.7,4.62L47.51,15.85z M50.11,12.91v5.54h-1.08V7.76h1.08v4.26
		h1.66v0.89H50.11z"/>
	<path d="M53.8,12.84c1.55,0,3.39-0.13,4.41-0.35l0.13,0.86c-1.06,0.24-2.9,0.34-4.79,0.38h-1.08V8.7h4.88V9.6h-3.82v3.24H53.8z
		 M53.69,18.1v-3.3h1.09v2.43h5.97v0.87H53.69z M60.38,11.7v3.8h-1.09V7.76h1.09v3.03h1.59v0.91H60.38z"/>
	<path class="st0" d="M53.8,12.84c1.55,0,3.39-0.13,4.41-0.35l0.13,0.86c-1.06,0.24-2.9,0.34-4.79,0.38h-1.08V8.7h4.88V9.6h-3.82
		v3.24H53.8z M53.69,18.1v-3.3h1.09v2.43h5.97v0.87H53.69z M60.38,11.7v3.8h-1.09V7.76h1.09v3.03h1.59v0.91H60.38z"/>
	<path d="M42.29,26.43v-4.94h1.09v1.58h2.8v-1.59h1.08v4.95H42.29z M46.18,23.93h-2.8v1.61h2.8V23.93z M43.74,31.43v-4.18h1.09v1.22
		h4.71v-1.26h1.1v4.22H43.74z M49.54,29.31h-4.71v1.25h4.71V29.31z M47.81,24.24v-0.92h1.72v-2.45h1.09v5.82h-1.09v-2.46H47.81z"/>
	<path class="st0" d="M42.29,26.43v-4.94h1.09v1.58h2.8v-1.59h1.08v4.95H42.29z M46.18,23.93h-2.8v1.61h2.8V23.93z M43.74,31.43
		v-4.18h1.09v1.22h4.71v-1.26h1.1v4.22H43.74z M49.54,29.31h-4.71v1.25h4.71V29.31z M47.81,24.24v-0.92h1.72v-2.45h1.09v5.82h-1.09
		v-2.46H47.81z"/>
	<path d="M58.08,24.26c0,1.54-1.21,2.6-2.86,2.6c-1.64,0-2.85-1.06-2.85-2.59c0-1.54,1.21-2.68,2.85-2.68
		C56.87,21.6,58.08,22.73,58.08,24.26 M53.51,24.25c0,0.98,0.71,1.71,1.71,1.71c1.05,0,1.71-0.72,1.71-1.7
		c0-1.02-0.66-1.74-1.71-1.74C54.22,22.53,53.51,23.26,53.51,24.25 M53.87,31.23v-3.33h1.09v2.46h6.19v0.87H53.87z M59.81,20.88
		h1.09v7.76h-1.09V20.88z"/>
	<path class="st0" d="M58.08,24.26c0,1.54-1.21,2.6-2.86,2.6c-1.64,0-2.85-1.06-2.85-2.59c0-1.54,1.21-2.68,2.85-2.68
		C56.87,21.6,58.08,22.73,58.08,24.26z M53.51,24.25c0,0.98,0.71,1.71,1.71,1.71c1.05,0,1.71-0.72,1.71-1.7
		c0-1.02-0.66-1.74-1.71-1.74C54.22,22.53,53.51,23.26,53.51,24.25z M53.87,31.23v-3.33h1.09v2.46h6.19v0.87H53.87z M59.81,20.88
		h1.09v7.76h-1.09V20.88z"/>
	<path d="M86.14,33.58h0.92v7.01h-0.92V33.58z M87.14,37.01l2.89-3.43h0.98l-2.84,3.33l2.97,3.68h-1.09L87.14,37.01z"/>
	<path d="M91.47,38.11v-0.18c0-1.63,0.95-2.63,2.37-2.63c1.48,0,2.37,0.97,2.37,2.6v0.17c0,1.63-0.96,2.62-2.38,2.62
		C92.34,40.69,91.47,39.73,91.47,38.11 M95.28,38.16v-0.28c0-1.4-0.66-1.85-1.46-1.85c-0.91,0-1.43,0.65-1.43,1.8v0.29
		c0,1.4,0.66,1.83,1.46,1.83C94.76,39.96,95.28,39.32,95.28,38.16"/>
	<path d="M97.04,35.41h0.84v0.57h0.05c0.28-0.34,0.84-0.64,1.41-0.64c0.13,0,0.27,0.02,0.32,0.04v0.79
		c-0.15-0.02-0.31-0.03-0.4-0.03c-0.49,0-0.98,0.16-1.35,0.4v4.05h-0.89V35.41z"/>
	<path d="M100,38.08v-0.16c0-1.81,1.07-2.62,2.29-2.62c1.42,0,2.1,0.82,2.1,2.45v0.5h-3.46c0.06,1.23,0.67,1.67,1.7,1.67
		c0.69,0,1.14-0.15,1.61-0.4v0.66c-0.3,0.23-0.9,0.5-1.75,0.5C100.83,40.69,100,39.67,100,38.08 M100.92,37.53h2.53
		c0-1.09-0.42-1.51-1.2-1.51C101.66,36.02,101,36.34,100.92,37.53"/>
	<path d="M104.88,39.21c0-0.9,0.58-1.39,1.57-1.51l1.38-0.17v-0.48c0-0.79-0.34-0.98-1.27-0.98c-0.51,0-0.93,0.08-1.24,0.15v-0.64
		c0.47-0.18,0.96-0.28,1.59-0.28c1.15,0,1.8,0.49,1.8,1.53v3.76h-0.71l-0.09-0.44h-0.05c-0.26,0.29-0.67,0.53-1.36,0.53
		C105.56,40.69,104.88,40.22,104.88,39.21 M107.83,39.64v-1.43l-1.15,0.12c-0.59,0.06-0.88,0.3-0.88,0.87c0,0.54,0.37,0.8,0.91,0.8
		C107.17,40,107.6,39.85,107.83,39.64"/>
	<polygon points="112.46,33.58 113.81,33.58 115.74,39.38 115.77,39.38 117.68,33.58 119.02,33.58 119.02,40.59 118.1,40.59 
		118.1,34.8 118.06,34.8 116.12,40.59 115.27,40.59 113.33,34.8 113.31,34.8 113.31,40.59 112.46,40.59 	"/>
	<path d="M119.99,39.21c0-0.9,0.58-1.39,1.57-1.51l1.38-0.17v-0.48c0-0.79-0.34-0.98-1.27-0.98c-0.51,0-0.93,0.08-1.24,0.15v-0.64
		c0.47-0.18,0.96-0.28,1.59-0.28c1.15,0,1.81,0.49,1.81,1.53v3.76h-0.71L123,40.15h-0.05c-0.26,0.29-0.67,0.53-1.36,0.53
		C120.66,40.69,119.99,40.22,119.99,39.21 M122.93,39.64v-1.43l-1.15,0.12c-0.59,0.06-0.88,0.3-0.88,0.87c0,0.54,0.36,0.8,0.91,0.8
		C122.27,40,122.7,39.85,122.93,39.64"/>
	<path d="M124.93,35.41h0.85v0.57h0.05c0.28-0.34,0.85-0.64,1.41-0.64c0.13,0,0.27,0.02,0.32,0.04v0.79
		c-0.15-0.02-0.31-0.03-0.4-0.03c-0.49,0-0.98,0.16-1.35,0.4v4.05h-0.89V35.41z"/>
	<path d="M128.6,39.37v-3.22h-0.74v-0.74h0.74v-1.23h0.89v1.23h1.3v0.74h-1.3v3.1c0,0.49,0.17,0.68,0.75,0.68
		c0.21,0,0.45-0.03,0.66-0.08v0.61c-0.22,0.09-0.43,0.2-0.9,0.2C129.17,40.64,128.6,40.29,128.6,39.37"/>
	<path d="M136.12,33.58h0.89l2.54,7.01h-0.96l-0.71-1.97h-2.73l-0.7,1.97h-0.88L136.12,33.58z M135.41,37.84h2.18l-1.08-3.03h-0.03
		L135.41,37.84z"/>
	<path d="M139.78,40.31v-0.7c0.44,0.18,0.81,0.32,1.54,0.32c0.78,0,1.12-0.27,1.12-0.72c0-0.42-0.22-0.64-0.86-0.8l-0.49-0.13
		c-0.75-0.2-1.29-0.54-1.29-1.44c0-0.92,0.57-1.53,1.82-1.53c0.69,0,1.13,0.16,1.42,0.3v0.72c-0.27-0.13-0.8-0.27-1.39-0.27
		c-0.67,0-1,0.23-1,0.69c0,0.43,0.22,0.59,0.75,0.74l0.49,0.13c1.01,0.27,1.42,0.61,1.42,1.52c0,1.02-0.72,1.54-1.85,1.54
		C140.8,40.67,140.21,40.56,139.78,40.31"/>
	<path d="M143.79,40.31v-0.7c0.44,0.18,0.81,0.32,1.54,0.32c0.78,0,1.12-0.27,1.12-0.72c0-0.42-0.22-0.64-0.86-0.8l-0.49-0.13
		c-0.75-0.2-1.29-0.54-1.29-1.44c0-0.92,0.57-1.53,1.82-1.53c0.69,0,1.13,0.16,1.42,0.3v0.72c-0.27-0.13-0.8-0.27-1.39-0.27
		c-0.67,0-1,0.23-1,0.69c0,0.43,0.22,0.59,0.75,0.74l0.49,0.13c1.01,0.27,1.42,0.61,1.42,1.52c0,1.02-0.72,1.54-1.85,1.54
		C144.8,40.67,144.22,40.56,143.79,40.31"/>
	<path d="M147.82,38.11v-0.18c0-1.63,0.95-2.63,2.37-2.63c1.48,0,2.37,0.97,2.37,2.6v0.17c0,1.63-0.96,2.62-2.38,2.62
		C148.69,40.69,147.82,39.73,147.82,38.11 M151.63,38.16v-0.28c0-1.4-0.66-1.85-1.46-1.85c-0.91,0-1.43,0.65-1.43,1.8v0.29
		c0,1.4,0.66,1.83,1.46,1.83C151.11,39.96,151.63,39.32,151.63,38.16"/>
	<path d="M153.06,38.12v-0.18c0-1.83,1.09-2.64,2.46-2.64c0.67,0,1.06,0.14,1.41,0.34v0.74c-0.46-0.2-0.78-0.32-1.47-0.32
		c-0.92,0-1.48,0.62-1.48,1.75v0.27c0,1.29,0.54,1.85,1.59,1.85c0.7,0,1.17-0.24,1.44-0.37v0.71c-0.34,0.22-0.81,0.41-1.53,0.41
		C154,40.69,153.06,39.85,153.06,38.12"/>
	<path d="M157.76,33.45h0.91v0.93h-0.91V33.45z M157.76,35.41h0.9v5.19h-0.9V35.41z"/>
	<path d="M159.51,39.21c0-0.9,0.58-1.39,1.56-1.51l1.38-0.17v-0.48c0-0.79-0.34-0.98-1.27-0.98c-0.51,0-0.93,0.08-1.24,0.15v-0.64
		c0.47-0.18,0.96-0.28,1.59-0.28c1.15,0,1.81,0.49,1.81,1.53v3.76h-0.71l-0.09-0.44h-0.05c-0.26,0.29-0.67,0.53-1.36,0.53
		C160.19,40.69,159.51,40.22,159.51,39.21 M162.45,39.64v-1.43l-1.15,0.12c-0.59,0.06-0.88,0.3-0.88,0.87c0,0.54,0.37,0.8,0.91,0.8
		C161.79,40,162.22,39.85,162.45,39.64"/>
	<path d="M164.73,39.37v-3.22h-0.74v-0.74h0.74v-1.23h0.89v1.23h1.3v0.74h-1.3v3.1c0,0.49,0.17,0.68,0.75,0.68
		c0.21,0,0.45-0.03,0.66-0.08v0.61c-0.22,0.09-0.43,0.2-0.9,0.2C165.3,40.64,164.73,40.29,164.73,39.37"/>
	<path d="M167.81,33.45h0.91v0.93h-0.91V33.45z M167.81,35.41h0.9v5.19h-0.9V35.41z"/>
	<path d="M169.57,38.11v-0.18c0-1.63,0.95-2.63,2.37-2.63c1.48,0,2.37,0.97,2.37,2.6v0.17c0,1.63-0.96,2.62-2.38,2.62
		C170.44,40.69,169.57,39.73,169.57,38.11 M173.38,38.16v-0.28c0-1.4-0.66-1.85-1.46-1.85c-0.91,0-1.43,0.65-1.43,1.8v0.29
		c0,1.4,0.66,1.83,1.46,1.83C172.86,39.96,173.38,39.32,173.38,38.16"/>
	<path d="M175.13,35.41h0.84v0.45h0.05c0.44-0.31,1.11-0.55,1.74-0.55c1.02,0,1.5,0.43,1.5,1.43v3.86h-0.88v-3.67
		c0-0.59-0.2-0.85-1.01-0.85c-0.46,0-0.99,0.17-1.37,0.34v4.17h-0.89V35.41z"/>
	<polygon class="st1" points="34.19,29.49 34.19,29.49 31.33,29.49 	"/>
	<polygon class="st2" points="9.96,37.87 5.12,29.48 9.96,21.1 9.96,21.09 14.8,12.7 24.49,12.7 19.65,4.31 9.96,4.31 0.27,21.1 
		9.96,37.89 29.34,37.89 31.2,34.67 29.34,37.88 	"/>
	<polygon class="st3" points="24.5,12.7 29.34,21.09 29.34,21.09 29.34,21.1 24.5,29.49 31.33,29.49 34.19,29.49 39.03,21.1 
		29.34,4.31 19.65,4.31 24.49,12.7 	"/>
	<path class="st3" d="M34.19,29.49l4.85-8.39L34.19,29.49z"/>
	<polygon class="st4" points="31.2,34.67 34.19,29.49 34.19,29.49 	"/>
	<polygon class="st4" points="31.33,29.49 24.5,29.49 24.5,29.49 14.81,29.48 14.81,29.48 14.8,29.48 9.96,21.1 5.12,29.48 
		9.96,37.87 29.34,37.88 31.2,34.67 34.19,29.49 	"/>
	<polygon class="st4" points="24.5,29.49 31.33,29.49 24.5,29.49 	"/>
	<path d="M11.85,18.03h1.17v5.54h-1.17V18.03z M13.06,20.77c0.68-0.92,1.38-1.83,2.05-2.75c0.41,0,0.81,0.01,1.22,0.01l-2,2.63
		c0.71,0.97,1.42,1.94,2.11,2.92H15.1C14.43,22.64,13.74,21.69,13.06,20.77"/>
	<polygon points="16.7,18.03 18.34,18.03 19.63,21.97 19.66,21.97 20.93,18.03 22.54,18.03 22.54,23.57 21.38,23.57 21.38,19.43 
		21.36,19.43 20,23.57 19.08,23.57 17.75,19.42 17.72,19.42 17.72,23.57 16.7,23.57 	"/>
	<path d="M24.81,18.03h1.23l2,5.54h-1.21l-0.47-1.32h-2.02l-0.46,1.32h-1.08L24.81,18.03z M24.59,21.43h1.48l-0.74-2.1h-0.03
		L24.59,21.43z"/>
	<path class="st5" d="M64.41,10.77h14.35v2.61H64.41V10.77z M71.74,23.46c-3.39,0-5.89-1.92-5.89-4.65c0-2.7,2.47-4.71,5.89-4.71
		c3.33,0,5.83,2.01,5.83,4.71C77.57,21.54,75.07,23.46,71.74,23.46 M67.63,31.16v-6.75h3.28v4.08h13.63v2.67H67.63z M68.08,7.01
		h7.36v2.56h-7.36V7.01z M71.74,20.76c1.42,0,2.67-0.8,2.67-1.95c0-1.21-1.25-2.04-2.67-2.04c-1.44,0-2.67,0.83-2.67,2.04
		C69.08,19.96,70.3,20.76,71.74,20.76 M83.96,14.44h3.44v2.79h-3.44v7.95h-3.25V6.17h3.25V14.44z"/>
	<path class="st5" d="M97.06,22.77v-4.36h-9.55v-2.67h15.66c0.33-1.64,0.61-4.39,0.58-5.97H90.37v-2.7H107
		c0,3.27-0.28,6.32-0.75,8.67h3.61v2.67h-9.55v4.36H107v9.02h-3.22v-6.35H90.2v-2.67H97.06z"/>
	<path class="st5" d="M122.77,25.15h-11.74V8.53h11.74V25.15z M119.52,11.23h-5.28v11.26h5.28V11.23z M129.77,15.99h3.36v2.79h-3.36
		v12.98h-3.3V6.17h3.3V15.99z"/>
	<path class="st5" d="M155.67,28.54h-22.35V25.9h22.35V28.54z M139.4,16.34v2.79h13.71v2.64h-16.93V8.18h16.69v2.64H139.4v2.87
		h12.88v2.64H139.4z"/>
	<path d="M156.28,10.25h13.16v2.47h-13.16V10.25z M163.17,21.77c-3.64,0-5.89-1.78-5.89-4.19c0-2.44,2.25-4.19,5.89-4.19
		c3.61,0,5.91,1.75,5.91,4.19C169.08,19.99,166.78,21.77,163.17,21.77 M159.64,6.58h6.94v2.56h-6.94V6.58z M160.31,31.56v-9.05h3.25
		v2.01h9.88v-2.1h3.25v9.13H160.31z M163.17,19.27c1.47,0,2.69-0.72,2.69-1.69c0-0.98-1.22-1.69-2.69-1.69
		c-1.47,0-2.69,0.72-2.69,1.69C160.47,18.55,161.72,19.27,163.17,19.27 M173.44,27.11h-9.88v1.81h9.88V27.11z M173.44,21.31v-2.1
		h-3.28v-2.56h3.28v-2.24h-3.28v-2.58h3.28V6.17h3.25v15.13H173.44z"/>
	<path d="M188.77,23.06v1.95c2.33-0.14,4.5-0.29,6.3-0.52l0.28,2.56c-4.22,0.49-11.19,0.89-15.82,0.89l-0.42-2.73
		c2.11,0,4.28-0.03,6.41-0.06v-2.13c-2.53-0.49-4.22-2.07-4.22-4.22c0-2.61,2.5-4.39,5.91-4.39c3.44,0,5.97,1.78,5.97,4.39
		C193.18,21.02,191.38,22.63,188.77,23.06 M179.91,11.2h14.44v2.53h-14.44V11.2z M183.6,7.52h7.19v2.53h-7.19V7.52z M187.21,17
		c-1.55,0-2.66,0.83-2.66,1.81c0,0.98,1.11,1.84,2.66,1.84c1.58,0,2.69-0.86,2.69-1.84C189.9,17.83,188.79,17,187.21,17
		 M199.73,31.76h-3.25V6.17h3.25V31.76z"/>
</g>
</svg>
