<?xml version="1.0" encoding="utf-8"?>
<!-- Generator: Adobe Illustrator 25.3.1, SVG Export Plug-In . SVG Version: 6.00 Build 0)  -->
<svg version="1.1" id="Layer_1" xmlns="http://www.w3.org/2000/svg" xmlns:xlink="http://www.w3.org/1999/xlink" x="0px" y="0px"
	 viewBox="0 0 200 45" style="enable-background:new 0 0 200 45;" xml:space="preserve">
<style type="text/css">
	.st0{fill:none;stroke:#000000;stroke-miterlimit:10;}
	.st1{fill:#95CA57;}
	.st2{fill:#B6D433;}
	.st3{fill:#F7941D;}
	.st4{fill:#1C75BC;}
	.st5{fill:#5685C5;}
</style>
<g>
	<path d="M47.73,15.87c-0.95-0.62-2.19-1.95-2.59-3.18c-0.37,1.29-1.42,2.64-2.63,3.45l-0.67-0.8c1.61-1.01,2.74-2.86,2.74-4.82
		V8.74h1.11v1.73c0,2,1.19,3.68,2.69,4.6L47.73,15.87z M50.32,12.95v5.52h-1.07V7.82h1.07v4.24h1.66v0.89H50.32z"/>
	<path class="st0" d="M47.73,15.87c-0.95-0.62-2.19-1.95-2.59-3.18c-0.37,1.29-1.42,2.64-2.63,3.45l-0.67-0.8
		c1.61-1.01,2.74-2.86,2.74-4.82V8.74h1.11v1.73c0,2,1.19,3.68,2.69,4.6L47.73,15.87z M50.32,12.95v5.52h-1.07V7.82h1.07v4.24h1.66
		v0.89H50.32z"/>
	<path d="M54,12.88c1.55,0,3.37-0.13,4.4-0.35l0.13,0.85c-1.06,0.24-2.89,0.34-4.77,0.38h-1.07V8.76h4.86v0.89h-3.8v3.23H54z
		 M53.89,18.11v-3.29h1.08v2.42h5.94v0.86H53.89z M60.55,11.75v3.79h-1.08V7.82h1.08v3.02h1.58v0.9H60.55z"/>
	<path class="st0" d="M54,12.88c1.55,0,3.37-0.13,4.4-0.35l0.13,0.85c-1.06,0.24-2.89,0.34-4.77,0.38h-1.07V8.76h4.86v0.89h-3.8
		v3.23H54z M53.89,18.11v-3.29h1.08v2.42h5.94v0.86H53.89z M60.55,11.75v3.79h-1.08V7.82h1.08v3.02h1.58v0.9H60.55z"/>
	<path d="M42.53,26.41v-4.92h1.08v1.57h2.79v-1.58h1.07v4.93H42.53z M46.4,23.93h-2.79v1.61h2.79V23.93z M43.98,31.39v-4.16h1.08
		v1.22h4.69v-1.25h1.1v4.2H43.98z M49.75,29.28h-4.69v1.24h4.69V29.28z M48.03,24.23v-0.91h1.72v-2.43h1.08v5.8h-1.08v-2.45H48.03z"
		/>
	<path class="st0" d="M42.53,26.41v-4.92h1.08v1.57h2.79v-1.58h1.07v4.93H42.53z M46.4,23.93h-2.79v1.61h2.79V23.93z M43.98,31.39
		v-4.16h1.08v1.22h4.69v-1.25h1.1v4.2H43.98z M49.75,29.28h-4.69v1.24h4.69V29.28z M48.03,24.23v-0.91h1.72v-2.43h1.08v5.8h-1.08
		v-2.45H48.03z"/>
	<path d="M58.26,24.26c0,1.53-1.21,2.59-2.85,2.59c-1.63,0-2.84-1.06-2.84-2.58c0-1.53,1.21-2.67,2.84-2.67
		C57.06,21.6,58.26,22.73,58.26,24.26 M53.71,24.24c0,0.97,0.71,1.7,1.7,1.7c1.05,0,1.7-0.72,1.7-1.69c0-1.01-0.66-1.73-1.7-1.73
		C54.41,22.53,53.71,23.26,53.71,24.24 M54.06,31.2v-3.31h1.08v2.45h6.16v0.86H54.06z M59.98,20.88h1.08v7.73h-1.08V20.88z"/>
	<path class="st0" d="M58.26,24.26c0,1.53-1.21,2.59-2.85,2.59c-1.63,0-2.84-1.06-2.84-2.58c0-1.53,1.21-2.67,2.84-2.67
		C57.06,21.6,58.26,22.73,58.26,24.26z M53.71,24.24c0,0.97,0.71,1.7,1.7,1.7c1.05,0,1.7-0.72,1.7-1.69c0-1.01-0.66-1.73-1.7-1.73
		C54.41,22.53,53.71,23.26,53.71,24.24z M54.06,31.2v-3.31h1.08v2.45h6.16v0.86H54.06z M59.98,20.88h1.08v7.73h-1.08V20.88z"/>
	<path d="M86.2,33.53h0.91v6.98H86.2V33.53z M87.2,36.95l2.88-3.42h0.98l-2.83,3.31l2.96,3.67h-1.08L87.2,36.95z"/>
	<path d="M91.51,38.04v-0.18c0-1.62,0.95-2.62,2.36-2.62c1.48,0,2.36,0.97,2.36,2.59V38c0,1.62-0.96,2.61-2.37,2.61
		C92.37,40.61,91.51,39.65,91.51,38.04 M95.3,38.09v-0.28c0-1.39-0.65-1.84-1.45-1.84c-0.9,0-1.42,0.64-1.42,1.8v0.29
		c0,1.39,0.65,1.82,1.45,1.82C94.78,39.88,95.3,39.25,95.3,38.09"/>
	<path d="M97.05,35.35h0.84v0.57h0.05c0.28-0.34,0.84-0.63,1.4-0.63c0.12,0,0.27,0.02,0.32,0.04v0.79
		c-0.15-0.02-0.31-0.03-0.39-0.03c-0.49,0-0.98,0.16-1.34,0.39v4.03h-0.88V35.35z"/>
	<path d="M100,38.01v-0.16c0-1.8,1.07-2.61,2.28-2.61c1.41,0,2.09,0.82,2.09,2.44v0.5h-3.45c0.06,1.23,0.66,1.66,1.69,1.66
		c0.69,0,1.13-0.15,1.6-0.39v0.65c-0.3,0.23-0.89,0.5-1.75,0.5C100.83,40.61,100,39.6,100,38.01 M100.91,37.47h2.51
		c0-1.08-0.42-1.51-1.2-1.51C101.65,35.96,101,36.29,100.91,37.47"/>
	<path d="M104.86,39.14c0-0.89,0.58-1.38,1.56-1.51l1.37-0.17v-0.48c0-0.79-0.34-0.98-1.27-0.98c-0.51,0-0.92,0.08-1.24,0.15v-0.63
		c0.47-0.18,0.96-0.28,1.58-0.28c1.14,0,1.8,0.49,1.8,1.53v3.74h-0.71l-0.09-0.44h-0.05c-0.26,0.29-0.66,0.53-1.35,0.53
		C105.54,40.61,104.86,40.14,104.86,39.14 M107.79,39.57v-1.42l-1.14,0.11c-0.59,0.06-0.87,0.3-0.87,0.86c0,0.54,0.36,0.8,0.9,0.8
		C107.14,39.92,107.57,39.78,107.79,39.57"/>
	<polygon points="112.41,33.53 113.75,33.53 115.67,39.31 115.7,39.31 117.6,33.53 118.94,33.53 118.94,40.52 118.02,40.52 
		118.02,34.75 117.99,34.75 116.06,40.52 115.2,40.52 113.27,34.75 113.25,34.75 113.25,40.52 112.41,40.52 	"/>
	<path d="M119.9,39.14c0-0.89,0.58-1.38,1.56-1.51l1.37-0.17v-0.48c0-0.79-0.34-0.98-1.27-0.98c-0.51,0-0.92,0.08-1.24,0.15v-0.63
		c0.47-0.18,0.96-0.28,1.58-0.28c1.14,0,1.8,0.49,1.8,1.53v3.74H123l-0.09-0.44h-0.05c-0.26,0.29-0.67,0.53-1.35,0.53
		C120.58,40.61,119.9,40.14,119.9,39.14 M122.83,39.57v-1.42l-1.14,0.11c-0.59,0.06-0.87,0.3-0.87,0.86c0,0.54,0.36,0.8,0.9,0.8
		C122.18,39.92,122.6,39.78,122.83,39.57"/>
	<path d="M124.83,35.35h0.84v0.57h0.05c0.28-0.34,0.84-0.63,1.4-0.63c0.12,0,0.27,0.02,0.32,0.04v0.79
		c-0.15-0.02-0.31-0.03-0.4-0.03c-0.49,0-0.98,0.16-1.34,0.39v4.03h-0.88V35.35z"/>
	<path d="M128.48,39.3v-3.21h-0.74v-0.74h0.74v-1.23h0.88v1.23h1.3v0.74h-1.3v3.09c0,0.49,0.17,0.68,0.75,0.68
		c0.21,0,0.45-0.03,0.65-0.08v0.6c-0.22,0.09-0.43,0.2-0.89,0.2C129.05,40.57,128.48,40.21,128.48,39.3"/>
	<path d="M135.97,33.53h0.88l2.52,6.98h-0.96l-0.71-1.96h-2.72l-0.7,1.96h-0.87L135.97,33.53z M135.26,37.77h2.17l-1.08-3.01h-0.03
		L135.26,37.77z"/>
	<path d="M139.62,40.23v-0.7c0.44,0.18,0.81,0.32,1.54,0.32c0.78,0,1.11-0.27,1.11-0.72c0-0.42-0.22-0.63-0.85-0.8l-0.49-0.13
		c-0.75-0.2-1.29-0.54-1.29-1.43c0-0.91,0.57-1.53,1.81-1.53c0.69,0,1.12,0.16,1.41,0.3v0.72c-0.27-0.13-0.8-0.27-1.38-0.27
		c-0.66,0-1,0.23-1,0.69c0,0.43,0.22,0.59,0.75,0.74l0.49,0.12c1.01,0.27,1.41,0.6,1.41,1.52c0,1.02-0.72,1.54-1.84,1.54
		C140.62,40.6,140.04,40.48,139.62,40.23"/>
	<path d="M143.61,40.23v-0.7c0.44,0.18,0.81,0.32,1.54,0.32c0.78,0,1.11-0.27,1.11-0.72c0-0.42-0.22-0.63-0.85-0.8l-0.49-0.13
		c-0.75-0.2-1.29-0.54-1.29-1.43c0-0.91,0.57-1.53,1.81-1.53c0.69,0,1.12,0.16,1.41,0.3v0.72c-0.27-0.13-0.8-0.27-1.38-0.27
		c-0.66,0-1,0.23-1,0.69c0,0.43,0.22,0.59,0.75,0.74l0.49,0.12c1.01,0.27,1.41,0.6,1.41,1.52c0,1.02-0.72,1.54-1.84,1.54
		C144.62,40.6,144.03,40.48,143.61,40.23"/>
	<path d="M147.62,38.04v-0.18c0-1.62,0.95-2.62,2.36-2.62c1.48,0,2.36,0.97,2.36,2.59V38c0,1.62-0.96,2.61-2.37,2.61
		C148.48,40.61,147.62,39.65,147.62,38.04 M151.41,38.09v-0.28c0-1.39-0.66-1.84-1.45-1.84c-0.9,0-1.42,0.64-1.42,1.8v0.29
		c0,1.39,0.65,1.82,1.45,1.82C150.89,39.88,151.41,39.25,151.41,38.09"/>
	<path d="M152.84,38.05v-0.18c0-1.82,1.09-2.63,2.45-2.63c0.66,0,1.06,0.13,1.4,0.34v0.74c-0.46-0.2-0.78-0.32-1.46-0.32
		c-0.91,0-1.48,0.61-1.48,1.75v0.27c0,1.29,0.54,1.84,1.58,1.84c0.7,0,1.16-0.24,1.43-0.36v0.71c-0.34,0.22-0.81,0.41-1.53,0.41
		C153.77,40.61,152.84,39.78,152.84,38.05"/>
	<path d="M157.51,33.41h0.9v0.92h-0.9V33.41z M157.51,35.35h0.89v5.16h-0.89V35.35z"/>
	<path d="M159.26,39.14c0-0.89,0.58-1.38,1.56-1.51l1.37-0.17v-0.48c0-0.79-0.34-0.98-1.27-0.98c-0.51,0-0.92,0.08-1.24,0.15v-0.63
		c0.47-0.18,0.96-0.28,1.58-0.28c1.14,0,1.8,0.49,1.8,1.53v3.74h-0.71l-0.09-0.44h-0.05c-0.26,0.29-0.66,0.53-1.35,0.53
		C159.93,40.61,159.26,40.14,159.26,39.14 M162.19,39.57v-1.42l-1.14,0.11c-0.59,0.06-0.87,0.3-0.87,0.86c0,0.54,0.36,0.8,0.9,0.8
		C161.53,39.92,161.96,39.78,162.19,39.57"/>
	<path d="M164.45,39.3v-3.21h-0.74v-0.74h0.74v-1.23h0.88v1.23h1.3v0.74h-1.3v3.09c0,0.49,0.17,0.68,0.75,0.68
		c0.21,0,0.45-0.03,0.65-0.08v0.6c-0.22,0.09-0.43,0.2-0.89,0.2C165.03,40.57,164.45,40.21,164.45,39.3"/>
	<path d="M167.52,33.41h0.9v0.92h-0.9V33.41z M167.52,35.35h0.89v5.16h-0.89V35.35z"/>
	<path d="M169.28,38.04v-0.18c0-1.62,0.95-2.62,2.36-2.62c1.48,0,2.36,0.97,2.36,2.59V38c0,1.62-0.96,2.61-2.37,2.61
		C170.14,40.61,169.28,39.65,169.28,38.04 M173.07,38.09v-0.28c0-1.39-0.65-1.84-1.45-1.84c-0.9,0-1.42,0.64-1.42,1.8v0.29
		c0,1.39,0.65,1.82,1.45,1.82C172.55,39.88,173.07,39.25,173.07,38.09"/>
	<path d="M174.82,35.35h0.84v0.45h0.05c0.44-0.31,1.1-0.55,1.74-0.55c1.02,0,1.5,0.43,1.5,1.42v3.84h-0.87v-3.66
		c0-0.59-0.2-0.84-1.01-0.84c-0.46,0-0.99,0.17-1.36,0.34v4.16h-0.88V35.35z"/>
	<polygon class="st1" points="34.46,29.46 34.46,29.46 31.62,29.46 	"/>
	<polygon class="st2" points="10.34,37.81 5.52,29.45 10.34,21.1 10.34,21.09 15.16,12.74 24.81,12.74 19.99,4.39 10.34,4.39 
		0.69,21.11 10.34,37.82 29.64,37.82 31.49,34.62 29.64,37.82 	"/>
	<polygon class="st3" points="24.81,12.74 29.64,21.09 29.64,21.1 29.64,21.11 24.82,29.46 31.62,29.46 34.46,29.46 39.29,21.11 
		29.64,4.39 19.99,4.39 24.81,12.74 	"/>
	<path class="st3" d="M34.46,29.46l4.83-8.36L34.46,29.46z"/>
	<polygon class="st4" points="31.49,34.62 34.47,29.46 34.46,29.46 	"/>
	<polygon class="st4" points="31.62,29.46 24.81,29.46 24.82,29.46 15.17,29.45 15.16,29.45 15.16,29.45 10.34,21.1 5.52,29.45 
		10.34,37.81 29.64,37.82 31.49,34.62 34.46,29.46 	"/>
	<polygon class="st4" points="24.81,29.46 31.62,29.46 24.82,29.46 	"/>
	<path d="M12.22,18.05h1.16v5.52h-1.16V18.05z M13.42,20.78c0.68-0.92,1.37-1.83,2.04-2.73c0.41,0,0.81,0.01,1.21,0.01l-1.99,2.61
		c0.71,0.97,1.41,1.93,2.11,2.9h-1.34C14.79,22.64,14.1,21.69,13.42,20.78"/>
	<polygon points="17.05,18.05 18.68,18.05 19.97,21.98 19.99,21.98 21.27,18.05 22.87,18.05 22.87,23.57 21.71,23.57 21.71,19.44 
		21.69,19.44 20.34,23.57 19.42,23.57 18.1,19.43 18.07,19.43 18.07,23.57 17.05,23.57 	"/>
	<path d="M25.13,18.05h1.22l1.99,5.52h-1.21l-0.47-1.32h-2.01l-0.46,1.32h-1.07L25.13,18.05z M24.91,21.44h1.48l-0.74-2.09h-0.03
		L24.91,21.44z"/>
	<path class="st5" d="M64.56,10.82h14.29v2.6H64.56V10.82z M71.86,23.46c-3.37,0-5.86-1.92-5.86-4.63c0-2.69,2.46-4.69,5.86-4.69
		c3.32,0,5.81,2,5.81,4.69C77.66,21.54,75.18,23.46,71.86,23.46 M67.77,31.12V24.4h3.26v4.06H84.6v2.66H67.77z M68.21,7.07h7.33
		v2.54h-7.33V7.07z M71.86,20.77c1.41,0,2.65-0.8,2.65-1.94c0-1.2-1.24-2.03-2.65-2.03c-1.44,0-2.65,0.83-2.65,2.03
		C69.21,19.97,70.42,20.77,71.86,20.77 M84.02,14.48h3.43v2.77h-3.43v7.92h-3.23V6.24h3.23V14.48z"/>
	<path class="st5" d="M97.07,22.77v-4.35h-9.51v-2.66h15.59c0.33-1.63,0.61-4.37,0.58-5.95H90.41V7.13h16.56
		c0,3.26-0.28,6.29-0.75,8.63h3.59v2.66h-9.51v4.35h6.66v8.98h-3.21v-6.32H90.25v-2.66H97.07z"/>
	<path class="st5" d="M122.67,25.14h-11.69V8.59h11.69V25.14z M119.44,11.27h-5.25v11.21h5.25V11.27z M129.64,16.02h3.35v2.77h-3.35
		v12.92h-3.29V6.24h3.29V16.02z"/>
	<path class="st5" d="M155.44,28.52h-22.25v-2.63h22.25V28.52z M139.24,16.36v2.77h13.66v2.63h-16.86V8.24h16.61v2.63h-13.41v2.86
		h12.83v2.63H139.24z"/>
	<path d="M156.05,10.3h13.1v2.46h-13.1V10.3z M162.9,21.77c-3.62,0-5.86-1.77-5.86-4.17c0-2.43,2.24-4.17,5.86-4.17
		c3.59,0,5.89,1.74,5.89,4.17C168.79,20,166.5,21.77,162.9,21.77 M159.39,6.64h6.91v2.55h-6.91V6.64z M160.05,31.52v-9.01h3.24v2
		h9.84v-2.09h3.23v9.09H160.05z M162.9,19.28c1.47,0,2.68-0.72,2.68-1.69c0-0.97-1.22-1.69-2.68-1.69c-1.46,0-2.68,0.71-2.68,1.69
		C160.22,18.57,161.46,19.28,162.9,19.28 M173.13,27.09h-9.84v1.8h9.84V27.09z M173.13,21.31v-2.09h-3.26v-2.54h3.26v-2.23h-3.26
		v-2.57h3.26V6.24h3.23v15.07H173.13z"/>
	<path d="M188.39,23.06V25c2.32-0.14,4.48-0.29,6.28-0.51l0.28,2.54c-4.2,0.49-11.14,0.89-15.76,0.89l-0.41-2.72
		c2.1,0,4.26-0.03,6.39-0.06v-2.12c-2.52-0.49-4.2-2.06-4.2-4.2c0-2.6,2.49-4.37,5.89-4.37c3.43,0,5.94,1.77,5.94,4.37
		C192.79,21.03,190.99,22.63,188.39,23.06 M179.57,11.25h14.38v2.52h-14.38V11.25z M183.25,7.59h7.16v2.52h-7.16V7.59z
		 M186.84,17.02c-1.55,0-2.65,0.83-2.65,1.8c0,0.97,1.11,1.83,2.65,1.83c1.58,0,2.68-0.86,2.68-1.83
		C189.53,17.85,188.42,17.02,186.84,17.02 M199.31,31.72h-3.23V6.24h3.23V31.72z"/>
</g>
</svg>
